<svg xmlns="http://www.w3.org/2000/svg" xmlns:xlink="http://www.w3.org/1999/xlink" version="1.1" width="256" height="256" viewBox="0 0 256 256" xml:space="preserve">

<defs>
</defs>
<g style="stroke: none; stroke-width: 0; stroke-dasharray: none; stroke-linecap: butt; stroke-linejoin: miter; stroke-miterlimit: 10; fill: none; fill-rule: nonzero; opacity: 1;" transform="translate(1.4065934065934016 1.4065934065934016) scale(2.81 2.81)" >
	<polyline points="59.53,35.82 69.4,89 20.6,89 30.47,35.82 " style="stroke: none; stroke-width: 1; stroke-dasharray: none; stroke-linecap: butt; stroke-linejoin: miter; stroke-miterlimit: 10; fill: rgb(84,111,122); fill-rule: nonzero; opacity: 1;" transform="  matrix(1 0 0 1 0 0) "/>
	<path d="M 45 1 c -9.155 0 -16.577 7.422 -16.577 16.577 c 0 4.087 1.486 7.823 3.938 10.713 L 45 43.176 L 57.639 28.29 c 2.452 -2.89 3.938 -6.626 3.938 -10.713 C 61.578 8.422 54.156 1 45 1 z" style="stroke: none; stroke-width: 1; stroke-dasharray: none; stroke-linecap: butt; stroke-linejoin: miter; stroke-miterlimit: 10; fill: rgb(255,74,74); fill-rule: nonzero; opacity: 1;" transform=" matrix(1 0 0 1 0 0) " stroke-linecap="round" />
	<circle cx="44.997" cy="17.007" r="8.867" style="stroke: none; stroke-width: 1; stroke-dasharray: none; stroke-linecap: butt; stroke-linejoin: miter; stroke-miterlimit: 10; fill: rgb(248,248,248); fill-rule: nonzero; opacity: 1;" transform="  matrix(1 0 0 1 0 0) "/>
	<path d="M 69.403 90 H 20.596 c -0.297 0 -0.579 -0.132 -0.769 -0.36 s -0.269 -0.53 -0.214 -0.822 l 9.877 -53.177 c 0.101 -0.543 0.625 -0.9 1.166 -0.801 c 0.543 0.101 0.901 0.623 0.801 1.166 L 21.799 88 H 68.2 l -9.657 -51.994 c -0.101 -0.543 0.258 -1.065 0.801 -1.166 c 0.54 -0.098 1.064 0.258 1.166 0.801 l 9.877 53.177 c 0.054 0.292 -0.024 0.594 -0.215 0.822 C 69.982 89.868 69.7 90 69.403 90 z" style="stroke: none; stroke-width: 1; stroke-dasharray: none; stroke-linecap: butt; stroke-linejoin: miter; stroke-miterlimit: 10; fill: rgb(0,0,0); fill-rule: nonzero; opacity: 1;" transform=" matrix(1 0 0 1 0 0) " stroke-linecap="round" />
	<path d="M 45 53.78 c -0.552 0 -1 -0.447 -1 -1 v -3.76 c 0 -0.553 0.448 -1 1 -1 s 1 0.447 1 1 v 3.76 C 46 53.333 45.552 53.78 45 53.78 z" style="stroke: none; stroke-width: 1; stroke-dasharray: none; stroke-linecap: butt; stroke-linejoin: miter; stroke-miterlimit: 10; fill: rgb(0,0,0); fill-rule: nonzero; opacity: 1;" transform=" matrix(1 0 0 1 0 0) " stroke-linecap="round" />
	<path d="M 45 44.176 c -0.293 0 -0.572 -0.129 -0.762 -0.353 L 31.599 28.938 c -2.693 -3.174 -4.176 -7.209 -4.176 -11.361 C 27.423 7.885 35.308 0 45 0 c 9.692 0 17.577 7.885 17.577 17.577 c 0 4.152 -1.483 8.187 -4.176 11.36 L 45.762 43.823 C 45.572 44.047 45.293 44.176 45 44.176 z M 45 2 c -8.589 0 -15.577 6.988 -15.577 15.577 c 0 3.679 1.314 7.253 3.701 10.066 L 45 41.631 l 11.876 -13.988 c 2.387 -2.813 3.701 -6.387 3.701 -10.066 C 60.577 8.988 53.589 2 45 2 z" style="stroke: none; stroke-width: 1; stroke-dasharray: none; stroke-linecap: butt; stroke-linejoin: miter; stroke-miterlimit: 10; fill: rgb(0,0,0); fill-rule: nonzero; opacity: 1;" transform=" matrix(1 0 0 1 0 0) " stroke-linecap="round" />
	<path d="M 45 26.874 c -5.441 0 -9.867 -4.427 -9.867 -9.868 S 39.559 7.139 45 7.139 c 5.44 0 9.867 4.426 9.867 9.867 S 50.44 26.874 45 26.874 z M 45 9.139 c -4.338 0 -7.867 3.529 -7.867 7.867 c 0 4.338 3.529 7.868 7.867 7.868 s 7.867 -3.529 7.867 -7.868 C 52.867 12.668 49.338 9.139 45 9.139 z" style="stroke: none; stroke-width: 1; stroke-dasharray: none; stroke-linecap: butt; stroke-linejoin: miter; stroke-miterlimit: 10; fill: rgb(0,0,0); fill-rule: nonzero; opacity: 1;" transform=" matrix(1 0 0 1 0 0) " stroke-linecap="round" />
	<path d="M 45 66.62 c -0.552 0 -1 -0.447 -1 -1 v -5.735 c 0 -0.553 0.448 -1 1 -1 s 1 0.447 1 1 v 5.735 C 46 66.173 45.552 66.62 45 66.62 z" style="stroke: none; stroke-width: 1; stroke-dasharray: none; stroke-linecap: butt; stroke-linejoin: miter; stroke-miterlimit: 10; fill: rgb(0,0,0); fill-rule: nonzero; opacity: 1;" transform=" matrix(1 0 0 1 0 0) " stroke-linecap="round" />
	<path d="M 45 84.399 c -0.552 0 -1 -0.447 -1 -1 V 72.726 c 0 -0.553 0.448 -1 1 -1 s 1 0.447 1 1 v 10.674 C 46 83.952 45.552 84.399 45 84.399 z" style="stroke: none; stroke-width: 1; stroke-dasharray: none; stroke-linecap: butt; stroke-linejoin: miter; stroke-miterlimit: 10; fill: rgb(0,0,0); fill-rule: nonzero; opacity: 1;" transform=" matrix(1 0 0 1 0 0) " stroke-linecap="round" />
</g>
</svg>